<?xml version="1.0" encoding="UTF-8" standalone="no"?>
<svg
   width="256px"
   height="160px"
   viewBox="0 0 256 160"
   version="1.1"
   preserveAspectRatio="xMidYMid"
   id="svg3"
   sodipodi:docname="nx-seeklogo.svg"
   inkscape:version="1.3.2 (091e20e, 2023-11-25, custom)"
   xmlns:inkscape="http://www.inkscape.org/namespaces/inkscape"
   xmlns:sodipodi="http://sodipodi.sourceforge.net/DTD/sodipodi-0.dtd"
   xmlns="http://www.w3.org/2000/svg"
   xmlns:svg="http://www.w3.org/2000/svg"
   xmlns:rdf="http://www.w3.org/1999/02/22-rdf-syntax-ns#"
   xmlns:cc="http://creativecommons.org/ns#"
   xmlns:dc="http://purl.org/dc/elements/1.1/">
  <defs
     id="defs3" />
  <sodipodi:namedview
     id="namedview3"
     pagecolor="#000000"
     bordercolor="#000000"
     borderopacity="0.25"
     inkscape:showpageshadow="2"
     inkscape:pageopacity="0.0"
     inkscape:pagecheckerboard="0"
     inkscape:deskcolor="#d1d1d1"
     inkscape:zoom="5.19375"
     inkscape:cx="128.03851"
     inkscape:cy="80.09627"
     inkscape:window-width="1678"
     inkscape:window-height="1050"
     inkscape:window-x="4101"
     inkscape:window-y="130"
     inkscape:window-maximized="0"
     inkscape:current-layer="svg3" />
  <title
     id="title1">Nx</title>
  <path
     d="M 39.370693,0 95.334998,94.219626 95.383918,51.571303 127.85691,102.33054 94.444657,154.8411 39.057606,64.955773 38.930414,159.05799 H 0 V 0 Z m 94.894717,44.468113 16.20226,25.438349 0.20546,0.352223 c 10.58799,-16.109246 28.57612,-25.803932 47.85339,-25.790572 31.24746,0 56.65505,26.44723 57.274,57.582817 l 0.0111,1.05254 h -0.0294 l -9.5e-4,0.39515 c -0.0564,2.58543 -1.4373,4.96989 -3.66843,6.30285 -2.31083,1.38057 -5.18264,1.42347 -7.53366,0.11252 -2.26995,-1.26574 -3.72144,-3.60789 -3.85502,-6.19049 l -0.009,-0.27759 -0.004,-0.35766 c -0.12436,-4.923998 -2.83267,-6.92225 -6.38925,-8.395722 l -0.52632,-0.212162 v 0 l -0.53723,-0.206342 v 0 l -0.54693,-0.202194 v 0 l -2.83769,-1.007275 v 0 l -0.5797,-0.21242 v 0 l -0.58093,-0.219978 v 0 l -0.58095,-0.229207 c -0.0968,-0.03906 -0.19347,-0.07858 -0.2901,-0.118586 l -0.57872,-0.246186 v 0 l -0.57571,-0.259595 c -2.29526,-1.067429 -4.48951,-2.496817 -6.23461,-4.769742 l -0.20465,-0.273609 v 0 l -0.20346,-0.28498 v 0 l -0.30445,-0.44727 v 0 l -0.40805,-0.629659 v 0 l -1.28978,-2.064349 v 0 l -0.46971,-0.727989 v 0 L 217.202,82.027704 v 0 l -0.25741,-0.371019 v 0 l -0.40299,-0.558032 v 0 l -0.2809,-0.372009 v 0 l -0.29146,-0.371185 c -0.0495,-0.06176 -0.0995,-0.12345 -0.14991,-0.185065 l -0.30858,-0.368643 c -3.04102,-3.552264 -7.79881,-6.744851 -17.00317,-6.744851 -7.61155,-0.0026 -14.9121,3.01993 -20.29428,8.402108 -5.38218,5.382179 -8.4047,12.682725 -8.40211,20.294272 0.0209,1.08524 0.27793,2.15156 0.75156,3.12533 l 0.14857,0.28928 34.24389,53.8901 H 167.18909 L 150.46829,133.82513 134.041,159.05799 H 96.284043 L 132.32819,102.31097 95.393702,44.468113 Z M 255.8508,111.22417 c 0.3838,2.68256 0.004,5.419 -1.0958,7.89566 -1.3217,3.05792 -3.18567,3.61105 -4.42763,3.58249 l -0.20659,-0.0102 v 0 l -0.19311,-0.0195 v 0 l -0.17832,-0.0266 v 0 l -0.23688,-0.0484 v 0 l -0.19627,-0.0523 v 0 l -0.25308,-0.087 v 0 l -0.0919,-0.0427 v 0 l -0.11146,-0.0628 v 0 l -0.16704,-0.1043 v 0 l -0.13467,-0.0925 v 0 l -0.148,-0.11078 v 0 l -0.1568,-0.12899 c -0.0266,-0.023 -0.0534,-0.0468 -0.0803,-0.0713 l -0.16149,-0.15618 c -0.6975,-0.71588 -1.32294,-1.9397 -0.21291,-3.64523 0.82097,-1.26806 1.95775,-1.97888 3.14717,-2.61757 l 1.20121,-0.63475 c 1.43903,-0.7762 2.82675,-1.68301 3.70383,-3.5671 z M 134.36325,0 v 40.437146 l -0.088,0.450062 H 95.393702 L 95.383918,40.437146 95.432838,0 Z"
     fill="#012f55"
     id="path1"
     style="fill:#ffffff" />
  <path
     d="m 194.36834,84.983559 c -9.31447,-0.17658 -17.72981,5.534248 -21.00619,14.255243 5.45436,-8.156795 15.83993,-11.434308 24.98826,-7.885879 4.22668,1.721978 9.78397,4.500626 14.18676,3.013463 -4.18724,-5.876369 -10.95326,-9.370504 -18.16883,-9.382827 z"
     fill="#96d8e9"
     id="path2" />
  <path
     d="m 238.48426,104.121 c 0,-4.76479 -2.59276,-5.870379 -7.97394,-7.827172 -3.99186,-1.389324 -8.52184,-2.954759 -11.81904,-7.259706 -0.64574,-0.851205 -1.24256,-1.810034 -1.87852,-2.827567 -1.42472,-2.6354 -3.35662,-4.962988 -5.68448,-6.848779 -3.14066,-2.309016 -7.25971,-3.434173 -12.60176,-3.434173 -10.71906,0.0075 -20.3759,6.477591 -24.45992,16.388149 5.16297,-7.163994 13.74326,-11.04561 22.53263,-10.193467 8.78936,0.852143 16.46421,6.309722 20.15483,14.332086 1.8439,3.042582 5.48033,4.495559 8.9132,3.561369 5.25399,-1.125161 4.89198,3.8451 12.82678,5.52794 z"
     fill="#48c4e5"
     id="path3" />
  <metadata
     id="metadata3">
    <rdf:RDF>
      <cc:Work
         rdf:about="">
        <dc:title>Nx</dc:title>
      </cc:Work>
    </rdf:RDF>
  </metadata>
</svg>
